<?xml version="1.0" standalone="no"?>
<!DOCTYPE svg PUBLIC "-//W3C//DTD SVG 20010904//EN"
 "http://www.w3.org/TR/2001/REC-SVG-20010904/DTD/svg10.dtd">
<svg version="1.0" xmlns="http://www.w3.org/2000/svg"
 width="512.000000pt" height="512.000000pt" viewBox="0 0 512.000000 512.000000"
 preserveAspectRatio="xMidYMid meet">
<metadata>
Created by potrace 1.11, written by Peter Selinger 2001-2013
</metadata>
<g transform="translate(0.000000,512.000000) scale(0.100000,-0.100000)"
fill="#000000" stroke="none">
<path d="M1678 4291 c-2 -60 -2 -152 0 -203 l3 -93 114 -1 115 0 0 203 0 203
-114 0 -115 0 -3 -109z"/>
<path d="M1083 4207 l-92 -53 101 -176 101 -176 41 28 c22 15 65 40 94 55 28
15 52 30 52 33 0 3 -29 55 -64 116 -35 61 -73 127 -84 147 -30 55 -46 79 -52
79 -3 0 -46 -24 -97 -53z"/>
<path d="M2386 4238 c-19 -32 -161 -278 -175 -305 -11 -21 -8 -24 41 -49 29
-15 72 -40 95 -55 l41 -29 23 38 c13 20 29 48 37 62 7 14 43 76 79 138 36 62
64 114 62 116 -6 6 -180 106 -185 106 -2 0 -10 -10 -18 -22z"/>
<path d="M571 3694 c-60 -107 -61 -100 24 -145 22 -11 49 -26 60 -32 176 -102
209 -119 213 -109 2 6 26 48 53 93 27 46 46 86 42 90 -7 7 -140 85 -283 167
l-56 31 -53 -95z"/>
<path d="M1690 3783 c-78 -11 -195 -50 -270 -88 -188 -98 -319 -254 -393 -470
-29 -84 -31 -100 -31 -230 0 -116 3 -153 22 -219 31 -106 91 -220 162 -304
l57 -69 -19 -24 c-100 -124 -148 -251 -149 -393 -2 -241 123 -447 336 -554
132 -66 69 -63 1440 -60 1351 4 1245 -1 1386 59 189 80 333 246 401 459 31 99
33 290 4 390 -52 179 -173 338 -323 426 -55 32 -63 40 -64 68 -12 541 -440
983 -969 1001 -138 4 -226 -7 -340 -41 -157 -48 -297 -131 -413 -244 l-68 -67
-29 41 c-37 53 -132 145 -193 186 -69 46 -180 95 -262 115 -65 16 -226 26
-285 18z m200 -237 c95 -13 222 -80 296 -155 62 -63 124 -158 124 -190 0 -19
-6 -21 -52 -22 -121 -1 -230 -26 -335 -74 -215 -99 -385 -291 -449 -506 -10
-33 -22 -59 -28 -59 -21 0 -123 120 -158 186 -136 258 -49 583 197 739 119 76
252 102 405 81z m1525 -21 c90 -22 235 -92 306 -148 122 -97 231 -262 266
-402 30 -119 36 -281 14 -360 -9 -33 -8 -35 17 -41 171 -37 287 -125 358 -269
93 -190 57 -411 -92 -560 -60 -61 -115 -94 -199 -121 l-70 -23 -1197 0 c-1052
0 -1203 2 -1249 15 -221 66 -333 315 -233 521 52 107 169 195 280 209 l51 6 6
62 c12 149 98 306 222 404 75 59 150 94 260 120 30 7 186 7 220 0 17 -4 44
-10 61 -13 30 -7 32 -5 38 28 19 102 101 250 192 346 121 129 282 214 452 240
75 11 221 5 297 -14z"/>
<path d="M390 2990 l0 -110 195 0 195 0 -1 93 c0 51 1 99 3 107 3 13 -28 15
-194 18 l-198 2 0 -110z"/>
<path d="M688 2481 c-136 -78 -166 -99 -162 -114 5 -15 89 -164 100 -176 2 -3
277 152 332 187 9 6 0 30 -37 93 -28 46 -54 89 -58 95 -5 7 -65 -22 -175 -85z"/>
<path d="M1900 760 l-180 -360 120 0 120 0 180 360 180 360 -120 0 -120 0
-180 -360z"/>
<path d="M2380 760 l-180 -360 120 0 120 0 180 360 180 360 -120 0 -120 0
-180 -360z"/>
<path d="M2860 760 l-180 -360 120 0 120 0 180 360 180 360 -120 0 -120 0
-180 -360z"/>
<path d="M3340 760 l-180 -360 120 0 120 0 180 360 180 360 -120 0 -120 0
-180 -360z"/>
</g>
</svg>
